<svg width="30" height="30" viewBox="0 0 48 48" fill="none" xmlns="http://www.w3.org/2000/svg">
  <path d="M44.5 20H24v8.5h11.8C34.2 34 29.8 37 24 37c-7.2 0-13-5.8-13-13s5.8-13 13-13c3.2 0 6.1 1.1 8.4 3l6.3-6.3C34.3 5.6 29.4 3 24 3 11.8 3 2 12.8 2 25s9.8 22 22 22c11.8 0 21-8.6 21-21 0-1.4-.2-2.8-.5-4z" fill="#FFC107"/>
  <path d="M6.5 14.7l6.7 4.9C15.1 16.4 19.2 14 24 14c3.2 0 6.1 1.1 8.4 3l6.3-6.3C34.3 5.6 29.4 3 24 3c-7.8 0-14.6 4.4-18.2 11.7l.7-.7z" fill="#FF3D00"/>
  <path d="M24 47c5.2 0 9.5-1.7 12.7-4.7l-5.8-4.5C29.7 40.8 27 42 24 42c-5.2 0-9.7-3.3-11.2-8H6.5l-6.7 4.9C4.8 40.3 14.1 47 24 47z" fill="#4CAF50"/>
  <path d="M44.5 20H24v8.5h11.8C34.8 31.5 30.5 34 24 34c-5.2 0-9.7-3.3-11.2-8H6.5l-6.7 4.9C4.8 37.3 14.1 44 24 44c11.8 0 21-8.6 21-21 0-1.4-.2-2.8-.5-4z" fill="#1976D2"/>
</svg>
